<svg xmlns="http://www.w3.org/2000/svg" version="1.1" xmlns:xlink="http://www.w3.org/1999/xlink" xmlns:svgjs="http://svgjs.dev/svgjs" viewBox="0 0 800 800"><defs><linearGradient x1="50%" y1="0%" x2="50%" y2="100%" id="ccchaos-grad"><stop stop-color="hsl(1.4, 100%, 67%)" stop-opacity="1" offset="0%"></stop><stop stop-color="hsl(167, 52%, 78%)" stop-opacity="1" offset="100%"></stop></linearGradient></defs><g stroke-width="2" stroke="url(#ccchaos-grad)" fill="none" stroke-linecap="round"><path d="M373.19 117.24C374.58 106 393.21 112.39 405.15 128.27Q413.19 138.14 421.57 147.98 430.13 157.77 438.73 167.5 447.23 177.15 455.46 186.7 463.3 196.14 470.6 205.44 477.24 214.6 483.14 223.6 488.22 232.43 492.43 241.08 497.82 257.72 500.77 273.76 500.53 288.81 499.17 303.27 497.56 316.87 496.82 330.01 499.08 342.56 503.89 354.89 513.56 367.07 526.17 379.3 534.06 385.51 542.69 391.82 551.93 398.25 561.61 404.83 571.55 411.57 581.56 418.51 591.44 425.66 601 433.04 610.04 440.66 618.4 448.55 625.91 456.71 632.47 465.15 637.97 473.88 642.35 482.91 645.59 492.23 647.72 501.83 648.77 511.72 648.86 521.89 648.1 532.31 646.64 542.99 644.69 553.89 642.42 565 640.07 576.3 637.86 587.75 635.99 599.33 634.69 611.02 634.14 622.77 634.52 634.56 635.97 646.36 638.59 658.12 642.45 669.81 647.58 681.4C657.14 697.83 656.01 706.3 642.93 695.47Q626.8 681.3 610.67 668.29 594.54 658.48 578.42 653.41 562.29 653.88 546.16 659.8 530.04 670.26 513.91 683.61 497.78 697.76 481.66 710.51 465.53 719.84 449.4 724.31 433.28 723.21 417.15 716.71 401.02 705.83 384.9 692.28 368.77 678.18 352.64 665.72 336.52 656.88 320.39 653.02 304.26 654.76 288.14 661.82 272.01 673.09 255.89 686.82 239.76 700.84 223.63 712.98 207.51 721.32 191.38 724.56 175.25 722.19 159.13 714.58 143 702.93 126.87 689.06C113.79 677.67 103.92 656.8 108.93 649.35Q116.78 639.22 125.41 629.08 135.42 618.61 146.17 607.74 157.83 595.94 169.72 583.46 175.65 576.76 181.47 569.79 187.11 562.53 192.52 554.97 197.64 547.11 202.42 538.96 206.84 530.51 210.86 521.77 214.48 512.75 217.7 503.47 220.55 493.93 223.05 484.15 225.25 474.16 227.21 463.97 229.01 453.6 230.73 443.09 232.43 432.45 234.22 421.71 236.19 410.89 238.4 400.03 240.95 389.15 243.9 378.27 247.3 367.42 251.2 356.62 255.61 345.91 260.56 335.29 266.02 324.79 271.96 314.42 278.35 304.21 285.1 294.17 292.15 284.31 299.41 274.65 306.76 265.17 314.1 255.91 321.33 246.84 328.33 237.99 335 229.33 341.25 220.88 346.99 212.62 352.15 204.55 360.27 189 366.45 173.9 369.72 159.4 371.64 145.16 372.79 124.21 373.19 117.24" stroke-dasharray="7 4" transform="rotate(0, 400, 400)" opacity="0.66"></path><path d="M378.46 128.05C379.13 117.31 397.23 123.65 409.56 138.97Q417.61 148.5 425.81 158 434.02 167.47 442.11 176.87 449.95 186.2 457.42 195.44 464.39 204.58 470.77 213.6 476.47 222.49 481.42 231.23 485.59 239.82 488.95 248.24 492.97 264.47 494.89 280.14 494.25 294.87 492.81 309.05 491.53 322.36 491.24 335.21 493.92 347.42 498.99 359.35 508.53 371.01 520.77 382.63 528.33 388.48 536.57 394.39 545.37 400.37 554.59 406.46 564.07 412.67 573.65 419.03 583.14 425.56 592.37 432.28 601.18 439.2 609.41 446.34 616.92 453.72 623.58 461.35 629.32 469.23 634.05 477.38 637.74 485.81 640.4 494.5 642.04 503.48 642.74 512.72 642.58 522.23 641.69 531.99 640.2 542.01 638.3 552.26 636.15 562.73 633.95 573.39 631.89 584.24 630.17 595.24 628.98 606.38 628.47 617.62 628.81 628.93 630.12 640.3 632.49 651.68 636 663.06C643.06 679.32 639.74 686.56 627.27 675.65Q611.9 662.58 596.53 651.69 581.16 644.57 565.79 642.23 550.42 645.02 535.05 652.54 519.68 663.7 504.31 676.87 488.94 690.16 473.57 701.63 458.2 709.62 442.83 712.98 427.46 711.22 412.09 704.59 396.72 694.05 381.35 681.13 365.98 667.71 350.61 655.73 335.24 646.92 319.87 642.56 304.5 643.28 289.13 648.99 273.76 658.84 258.39 671.42 243.02 684.9 227.65 697.32 212.28 706.9 196.91 712.23 181.54 712.55 166.17 707.81 150.8 698.69 135.42 686.53C122.96 675.62 113.87 654.98 119.02 648.06Q127.16 638.31 136.09 628.32 146.29 617.66 157.12 606.46 168.59 594.15 180.15 581.08 185.83 574.08 191.36 566.81 196.68 559.25 201.75 551.41 206.51 543.3 210.93 534.92 214.99 526.27 218.67 517.37 221.97 508.23 224.9 498.86 227.48 489.28 229.75 479.51 231.76 469.58 233.55 459.49 235.2 449.27 236.79 438.95 238.38 428.54 240.06 418.08 241.91 407.58 243.99 397.07 246.39 386.58 249.16 376.12 252.36 365.71 256.02 355.38 260.17 345.15 264.81 335.04 269.95 325.05 275.56 315.21 281.59 305.53 288 296.02 294.72 286.69 301.66 277.55 308.75 268.59 315.89 259.83 322.97 251.26 329.9 242.89 336.58 234.7 342.92 226.71 348.84 218.89 354.27 211.24 363.13 196.48 370.18 182.12 374.31 168.31 376.94 154.73 378.18 134.71 378.46 128.05" stroke-dasharray="5 7" transform="rotate(4.04, 400, 400)" opacity="0.23"></path><path d="M384.08 138.89C384.37 128.62 401.95 134.88 414.29 149.66Q429.93 168.02 445.03 186.22 458.71 204.16 470.21 221.73 479.02 238.81 484.93 255.34 488.04 271.23 488.82 286.43 487.99 300.93 486.5 314.73 485.41 327.84 485.75 340.34 488.43 352.31 494.11 363.84 503.1 375.08 515.36 386.16 530.44 397.25 547.59 408.51 565.74 420.12 583.73 432.22 600.34 444.97 614.52 458.5 625.45 472.91 632.68 488.29 636.16 504.69 636.3 522.1 633.89 540.52 630.05 559.87 626.08 580.06 623.32 600.95 623.04 622.38 626.19 644.16C630.96 659.94 625.39 666.42 613.5 656.14Q598.83 644.82 584.17 636.4 569.51 632.01 554.84 632.24 540.18 637.04 525.51 645.79 510.85 657.31 496.19 670.06 481.52 682.34 466.86 692.5 452.2 699.19 437.53 701.52 422.87 699.17 408.2 692.45 393.54 682.27 378.88 669.98 364.21 657.23 349.55 645.73 334.89 637 320.22 632.22 305.56 632.03 290.89 636.44 276.23 644.88 261.57 656.21 246.9 668.92 232.24 681.31 217.57 691.73 202.91 698.77 188.25 701.5 173.58 699.56 158.92 693.2 144.25 683.28C132.36 673.5 124.12 653.59 129.49 646.85Q137.82 637.16 147.15 626.9 157.39 615.92 168.28 604.07 179.49 591.28 190.61 577.46 201.21 562.59 210.89 546.7 219.35 529.82 226.4 512.05 232.04 493.48 236.42 474.26 239.87 454.54 242.85 434.48 245.9 414.25 249.6 394.02 254.45 373.95 260.88 354.19 269.11 334.88 279.18 316.12 290.92 298 303.91 280.57 317.59 263.87 331.3 247.9 344.32 232.62 355.99 218 365.78 203.96 373.37 190.4 378.68 177.23 381.91 164.33 383.78 145.24 384.08 138.89" stroke-dasharray="7 7" transform="rotate(8.08, 400, 400)" opacity="0.47"></path><path d="M389.73 149.72C390.01 139.95 407.08 146.12 419.05 160.34Q433.7 178.01 447.33 195.54 459.25 212.84 468.9 229.8 475.97 246.34 480.41 262.36 482.46 277.81 482.62 292.63 481.61 306.79 480.29 320.29 479.58 333.14 480.38 345.38 483.43 357.07 489.27 368.3 498.13 379.18 509.95 389.81 524.33 400.34 540.6 410.92 557.86 421.68 575.09 432.78 591.22 444.37 605.32 456.56 616.59 469.49 624.58 483.24 629.12 497.89 630.45 513.47 629.13 530.02 626.03 547.49 622.22 565.86 618.88 585.03 617.17 604.9 618.08 625.33C620.8 640.29 613.13 646.52 601.78 637.46Q587.77 628.37 573.76 622.6 559.75 620.86 545.74 623.38 531.73 629.83 517.72 639.42 503.71 650.99 489.7 663.09 475.7 674.26 461.69 683.11 447.68 688.56 433.67 689.94 419.66 687.07 405.65 680.32 391.64 670.51 377.63 658.84 363.62 646.76 349.61 635.74 335.6 627.14 321.6 622.01 307.59 620.99 293.58 624.21 279.57 631.26 265.56 641.28 251.55 653.03 237.54 665.09 223.53 675.95 209.52 684.29 195.51 689.09 181.5 689.75 167.49 686.19 153.48 678.85C142.12 670.73 134.77 651.98 140.39 645.14Q149.04 635.12 158.59 624.38 168.87 612.81 179.62 600.33 190.47 586.89 201.06 572.48 210.99 557.11 219.93 540.83 227.65 523.72 234.03 505.88 239.1 487.42 243.03 468.49 246.16 449.22 248.89 429.77 251.74 410.29 255.2 390.93 259.74 371.83 265.74 353.1 273.43 334.85 282.84 317.17 293.85 300.12 306.14 283.74 319.23 268.04 332.54 253.02 345.43 238.63 357.29 224.84 367.6 211.56 375.96 198.72 382.2 186.22 386.36 173.96 389.22 155.77 389.73 149.72" stroke-dasharray="11 8" transform="rotate(12.12, 400, 400)" opacity="1.00"></path><path d="M395.18 160.57C395.75 151.28 412.3 157.35 423.55 171Q436.89 187.98 448.86 204.83 458.96 221.48 466.81 237.83 472.28 253.8 475.45 269.31 476.63 284.3 476.34 298.72 475.26 312.53 474.18 325.73 473.88 338.31 475.11 350.29 478.5 361.74 484.46 372.7 493.16 383.26 504.53 393.52 518.22 403.58 533.63 413.58 550 423.64 566.45 433.89 582.05 444.46 595.96 455.48 607.47 467.07 616.09 479.33 621.6 492.35 624.08 506.19 623.9 520.9 621.71 536.49 618.38 552.96 614.88 570.27 612.26 588.36 611.46 607.14C612.47 621.02 602.97 627.39 592.1 620.01Q578.7 613.44 565.3 610.34 551.9 611.07 538.5 615.53 525.1 623.24 511.69 633.32 498.29 644.63 484.89 655.91 471.49 665.89 458.09 673.43 444.69 677.7 431.28 678.22 417.88 674.91 404.48 668.17 391.08 658.74 377.68 647.69 364.28 636.25 350.88 625.73 337.47 617.3 324.07 611.9 310.67 610.16 297.27 612.25 283.87 617.96 270.47 626.63 257.07 637.29 243.66 648.74 230.26 659.7 216.86 668.92 203.46 675.37 190.06 678.33 176.66 677.46 163.26 672.86C152.39 666.74 145.93 649.52 151.8 642.37Q160.71 631.8 170.39 620.43 180.61 608.19 191.09 595.06 201.49 581.02 211.46 566.11 220.67 550.36 228.85 533.86 235.84 516.68 241.56 498.95 246.09 480.77 249.6 462.28 252.42 443.61 254.92 424.9 257.57 406.28 260.8 387.87 265.05 369.79 270.63 352.13 277.78 334.97 286.54 318.38 296.82 302.4 308.39 287.06 320.83 272.34 333.65 258.25 346.31 244.73 358.23 231.75 368.9 219.23 377.93 207.08 385.05 195.24 390.19 183.6 394.32 166.32 395.18 160.57" stroke-dasharray="6 7" transform="rotate(16.16, 400, 400)" opacity="0.27"></path><path d="M400.15 171.44C401.25 162.62 417.25 168.57 427.52 181.66Q439.3 197.94 449.51 214.11 457.8 230.09 463.97 245.82 468.01 261.21 470.09 276.19 470.59 290.7 470.01 304.7 468.98 318.15 468.19 331.02 468.31 343.33 469.96 355.07 473.64 366.27 479.68 376.99 488.21 387.28 499.12 397.22 512.11 406.9 526.68 416.42 542.17 425.9 557.81 435.43 572.84 445.15 586.49 455.16 598.11 465.59 607.24 476.52 613.59 488.06 617.15 500.29 618.13 513.26 616.98 527.02 614.38 541.6 611.1 556.99 608.04 573.18 606.07 590.12C605.77 602.73 594.81 609.59 584.4 604.17Q571.57 600.23 558.73 599.67 545.89 602.55 533.06 608.59 520.22 617.14 507.38 627.35 494.55 638.16 481.71 648.46 468.88 657.2 456.04 663.48 443.2 666.65 430.37 666.38 417.53 662.72 404.69 656.03 391.86 646.99 379.02 636.55 366.19 625.76 353.35 615.73 340.51 607.5 327.68 601.91 314.84 599.53 302.01 600.61 289.17 605.03 276.34 612.35 263.5 621.81 250.66 632.43 237.83 643.14 224.99 652.83 212.16 660.51 199.32 665.38 186.48 666.96 173.65 665.07C163.24 661.12 157.63 645.67 163.72 638.07Q172.83 626.83 182.52 614.77 192.55 601.88 202.64 588.16 212.48 573.64 221.76 558.38 230.22 542.43 237.64 525.88 243.9 508.82 248.99 491.38 253 473.65 256.13 455.76 258.65 437.83 260.94 419.98 263.4 402.3 266.42 384.92 270.37 367.9 275.55 351.34 282.16 335.28 290.28 319.78 299.84 304.86 310.65 290.54 322.4 276.79 334.66 263.6 346.97 250.94 358.81 238.74 369.71 226.96 379.27 215.5 387.17 204.31 393.26 193.29 398.84 176.9 400.15 171.44" stroke-dasharray="4 8" transform="rotate(20.200000000000003, 400, 400)" opacity="0.22"></path><path d="M404.41 182.31C406.24 173.97 421.63 179.78 430.7 192.3Q440.77 207.87 449.2 223.34 455.76 238.66 460.4 253.75 463.2 268.55 464.41 282.98 464.41 297 463.68 310.56 462.8 323.62 462.34 336.17 462.88 348.18 464.92 359.66 468.86 370.63 474.94 381.12 483.26 391.18 493.71 400.85 506.01 410.22 519.75 419.36 534.36 428.35 549.2 437.31 563.6 446.32 576.9 455.49 588.54 464.92 598.04 474.71 605.11 484.95 609.65 495.73 611.76 507.11 611.73 519.17 610.03 531.94 607.3 545.45 604.24 559.71 601.62 574.71C600.41 585.96 588.42 593.48 578.44 590.16Q566.14 588.78 553.83 590.51 541.53 595.18 529.23 602.36 516.93 611.37 504.62 621.39 492.32 631.48 480.02 640.69 467.71 648.17 455.41 653.22 443.11 655.37 430.8 654.43 418.5 650.47 406.2 643.88 393.89 635.25 381.59 625.4 369.29 615.24 356.98 605.72 344.68 597.73 332.38 592.01 320.07 589.09 307.77 589.25 295.47 592.47 283.16 598.45 270.86 606.63 258.56 616.25 246.25 626.42 233.95 636.19 221.65 644.65 209.34 651 197.04 654.67 184.73 655.3C174.75 653.53 169.91 640 176.16 631.89Q185.33 619.95 194.9 607.26 204.61 593.81 214.2 579.65 223.4 564.81 231.94 549.38 239.61 533.42 246.26 517.03 251.82 500.29 256.31 483.31 259.84 466.2 262.6 449.06 264.86 431.98 266.95 415.08 269.22 398.43 272.03 382.11 275.69 366.2 280.48 350.75 286.58 335.8 294.06 321.38 302.9 307.51 312.96 294.18 323.97 281.38 335.61 269.08 347.46 257.24 359.09 245.81 370.07 234.74 379.99 223.96 388.55 213.4 395.51 202.99 402.6 187.48 404.41 182.31" stroke-dasharray="5 4" transform="rotate(24.24, 400, 400)" opacity="0.52"></path><path d="M407.76 193.21C410.42 185.31 425.17 190.98 432.89 202.94Q441.21 217.79 447.9 232.57 452.87 247.21 456.16 261.65 457.94 275.83 458.48 289.7 458.15 303.21 457.41 316.31 456.74 328.96 456.65 341.15 457.6 352.86 460 364.07 464.15 374.8 470.24 385.07 478.32 394.91 488.29 404.35 499.92 413.46 512.84 422.28 526.58 430.9 540.6 439.39 554.34 447.83 567.23 456.32 578.76 464.93 588.5 473.76 596.15 482.89 601.56 492.42 604.73 502.4 605.82 512.91 605.17 524.02 603.22 535.75 600.53 548.15 597.75 561.24C596.04 571.08 583.48 579.37 573.92 578.12Q562.13 579.09 550.34 582.74 538.54 588.77 526.75 596.68 514.95 605.78 503.16 615.33 491.37 624.51 479.57 632.56 467.78 638.79 455.98 642.68 444.19 643.91 432.39 642.37 420.6 638.2 408.81 631.73 397.01 623.52 385.22 614.26 373.42 604.72 361.63 595.71 349.83 587.99 338.04 582.21 326.24 578.84 314.45 578.19 302.66 580.29 290.86 584.98 279.07 591.86 267.27 600.35 255.48 609.74 243.68 619.23 231.89 628.03 220.09 635.4 208.3 640.71 196.5 643.53C186.94 643.81 182.77 632.2 189.08 623.61Q198.18 611.06 207.48 597.85 216.74 584.01 225.72 569.59 234.19 554.65 241.95 539.26 248.82 523.51 254.72 507.47 259.6 491.24 263.52 474.9 266.6 458.56 269.02 442.29 271.04 426.18 272.94 410.3 275.04 394.73 277.64 379.53 281.03 364.75 285.43 350.41 291.03 336.56 297.89 323.21 306.02 310.36 315.31 298 325.56 286.12 336.51 274.68 347.81 263.64 359.1 252.97 370 242.6 380.13 232.47 389.17 222.54 396.88 212.72 405.43 198.09 407.76 193.21" stroke-dasharray="2 0" transform="rotate(28.28, 400, 400)" opacity="0.47"></path><path d="M410.05 204.1C413.56 196.68 427.63 202.19 433.95 213.55Q440.53 227.68 445.6 241.75 449.17 255.7 451.33 269.49 452.3 283.05 452.36 296.34 451.87 309.31 451.22 321.93 450.83 334.16 451.12 345.97 452.46 357.34 455.18 368.27 459.5 378.76 465.56 388.8 473.38 398.43 482.87 407.67 493.83 416.55 505.94 425.13 518.82 433.45 532.02 441.57 545.06 449.57 557.47 457.51 568.79 465.46 578.65 473.52 586.74 481.74 592.88 490.21 597.01 499 599.2 508.17 599.64 517.8 598.64 527.93 596.63 538.61 594.1 549.87C592.25 558.35 579.63 567.41 570.46 568.05Q559.16 571.03 547.87 576.18 536.57 583.12 525.27 591.34 513.98 600.19 502.68 609.03 491.38 617.18 480.08 624.02 468.79 629.03 457.49 631.85 446.19 632.25 434.89 630.21 423.6 625.87 412.3 619.57 401 611.79 389.7 603.11 378.41 594.18 367.11 585.69 355.81 578.26 344.51 572.48 333.22 568.76 321.92 567.4 310.62 568.5 299.32 571.96 288.03 577.54 276.73 584.81 265.43 593.21 254.13 602.12 242.83 610.87 231.54 618.78 220.24 625.27 208.94 629.84C199.77 631.89 196.14 622.14 202.4 613.15Q211.27 600.17 220.16 586.64 228.84 572.62 237.13 558.16 244.82 543.34 251.76 528.22 257.84 512.88 263 497.4 267.24 481.85 270.63 466.32 273.29 450.87 275.41 435.58 277.2 420.52 278.92 405.74 280.86 391.29 283.26 377.22 286.38 363.57 290.42 350.35 295.52 337.58 301.79 325.28 309.21 313.42 317.74 302.01 327.21 291.01 337.41 280.4 348.08 270.15 358.91 260.2 369.57 250.51 379.73 241.03 389.08 231.7 397.37 222.48 407.22 208.7 410.05 204.1" stroke-dasharray="8 9" transform="rotate(32.32, 400, 400)" opacity="0.93"></path><path d="M411.18 215.02C415.5 208.05 428.84 213.38 433.78 224.16Q438.75 237.56 442.37 250.92 444.74 264.17 446.01 277.28 446.38 290.21 446.15 302.9 445.63 315.32 445.16 327.43 445.09 339.2 445.77 350.61 447.48 361.63 450.47 372.25 454.92 382.46 460.91 392.28 468.45 401.69 477.45 410.73 487.74 419.42 499.06 427.78 511.09 435.86 523.47 443.7 535.79 451.36 547.65 458.88 558.67 466.33 568.52 473.78 576.91 481.27 583.64 488.9 590.97 504.92 593.39 521.87 592.27 531.03 590.33 540.65C588.66 547.89 576.39 557.59 567.63 559.85Q556.82 564.39 546.02 570.58 535.22 578 524.41 586.14 513.61 594.46 502.81 602.4 492.01 609.42 481.2 615.05 470.4 618.91 459.6 620.73 448.8 620.4 437.99 617.94 427.19 613.51 416.39 607.42 405.59 600.06 394.78 591.95 383.98 583.62 373.18 575.64 362.38 568.55 351.57 562.82 340.77 558.85 329.97 556.89 319.17 557.08 308.36 559.41 297.56 563.73 286.76 569.73 275.96 577.02 265.16 585.1 254.35 593.43 243.55 601.44 232.75 608.61 221.95 614.43C213.18 617.91 209.94 609.82 216.02 600.6Q224.49 587.4 232.82 573.79 240.83 559.83 248.34 545.59 255.22 531.12 261.34 516.49 266.64 501.77 271.1 487.03 274.73 472.32 277.63 457.72 279.91 443.28 281.74 429.06 283.33 415.11 284.89 401.46 286.67 388.16 288.88 375.23 291.74 362.7 295.42 350.58 300.06 338.88 305.74 327.59 312.48 316.7 320.24 306.2 328.91 296.06 338.34 286.26 348.31 276.75 358.57 267.51 368.85 258.49 378.86 249.64 388.33 240.91 397.01 232.27 407.93 219.34 411.18 215.02" stroke-dasharray="7 10" transform="rotate(36.36, 400, 400)" opacity="0.39"></path><path d="M411.13 225.95C416.15 219.42 428.7 224.56 432.37 234.75Q435.89 247.42 438.29 260.04 439.71 272.59 440.3 285.02 440.28 297.29 439.92 309.37 439.49 321.21 439.27 332.79 439.56 344.08 440.61 355.06 442.66 365.69 445.88 375.98 450.4 385.9 456.29 395.46 463.52 404.65 472.03 413.49 481.66 421.99 492.2 430.17 503.39 438.05 514.94 445.67 526.51 453.07 537.78 460.28 548.42 467.35 558.13 474.34 566.67 481.28 573.83 488.25 582.82 502.55 587.29 517.4 587.18 525.27 586.08 533.48C584.85 539.62 573.32 549.79 564.96 553.29Q554.66 558.92 544.36 565.67 534.06 573.14 523.76 580.88 513.46 588.43 503.16 595.34 492.86 601.19 482.56 605.64 472.26 608.41 461.96 609.35 451.66 608.39 441.36 605.6 431.06 601.14 420.76 595.28 410.46 588.36 400.17 580.81 389.87 573.07 379.57 565.61 369.27 558.86 358.97 553.25 348.67 549.09 338.37 546.65 328.07 546.06 317.77 547.36 307.47 550.47 297.17 555.21 286.87 561.29 276.57 568.36 266.27 575.98 255.97 583.7 245.67 591.07 235.37 597.63C227.02 602.1 224.01 595.45 229.81 586.16Q237.74 573 245.4 559.58 252.63 545.94 259.32 532.15 265.35 518.26 270.66 504.33 275.21 490.42 279 476.57 282.08 462.84 284.52 449.28 286.46 435.94 288.04 422.84 289.44 410.03 290.86 397.55 292.48 385.4 294.51 373.61 297.11 362.19 300.45 351.14 304.64 340.46 309.76 330.16 315.83 320.2 322.84 310.58 330.72 301.27 339.34 292.24 348.55 283.46 358.15 274.9 367.91 266.52 377.61 258.28 387 250.15 395.85 242.07 407.54 229.98 411.13 225.95" stroke-dasharray="1 10" transform="rotate(40.400000000000006, 400, 400)" opacity="0.71"></path><path d="M409.94 236.88C415.48 230.81 427.22 235.74 429.76 245.32Q432.06 257.25 433.48 269.15 434.18 280.98 434.32 292.71 434.1 304.31 433.76 315.75 433.51 327 433.6 338.03 434.24 348.81 435.65 359.32 437.99 369.54 441.4 379.45 445.95 389.06 451.69 398.33 458.6 407.28 466.61 415.91 475.58 424.21 485.36 432.21 495.73 439.92 506.45 447.36 517.25 454.55 527.88 461.53 538.05 468.33 547.52 474.98 556.07 481.52 563.51 488 573.87 500.99 580.22 514.2 581.17 521.04 581.06 528.1C580.43 533.33 569.95 543.72 562.02 548.06Q552.24 554.28 542.46 561.15 532.68 568.3 522.9 575.36 513.12 581.96 503.34 587.75 493.56 592.43 483.78 595.75 474 597.53 464.22 597.69 454.44 596.21 444.66 593.17 434.89 588.74 425.11 583.13 415.33 576.66 405.55 569.66 395.77 562.5 385.99 555.55 376.21 549.18 366.43 543.72 356.65 539.47 346.87 536.64 337.09 535.39 327.31 535.77 317.53 537.78 307.75 541.29 297.97 546.14 288.19 552.06 278.41 558.75 268.63 565.85 258.85 572.98 249.07 579.78C241.14 584.8 238.23 579.32 243.61 570.19Q250.86 557.34 257.74 544.37 264.14 531.3 269.98 518.19 275.18 505.09 279.7 492.03 283.53 479.08 286.7 466.25 289.27 453.6 291.31 441.16 292.94 428.97 294.29 417.04 295.53 405.4 296.8 394.07 298.28 383.06 300.13 372.38 302.5 362.04 305.51 352.03 309.27 342.35 313.85 332.99 319.28 323.92 325.55 315.14 332.63 306.63 340.44 298.34 348.84 290.27 357.7 282.37 366.84 274.62 376.07 266.98 385.19 259.42 394 251.91 406.12 240.64 409.94 236.88" stroke-dasharray="2 8" transform="rotate(44.44, 400, 400)" opacity="0.27"></path><path d="M407.68 247.84C413.56 242.2 424.46 246.91 426.06 255.89Q427.39 267.07 428.09 278.23 428.31 289.33 428.2 300.36 427.95 311.28 427.73 322.06 427.74 332.69 428.16 343.13 429.16 353.37 430.89 363.39 433.48 373.16 437.02 382.67 441.56 391.92 447.12 400.88 453.68 409.55 461.18 417.93 469.51 426.03 478.54 433.84 488.09 441.38 497.99 448.65 508.02 455.68 517.96 462.48 527.6 469.07 536.72 475.48 545.14 481.74 552.7 487.88 564.11 499.92 572.08 511.92 574.06 517.99 574.99 524.15C575.08 528.67 565.87 539.02 558.38 543.78Q549.14 550.12 539.91 556.7 530.67 563.23 521.43 569.41 512.19 574.94 502.96 579.58 493.72 583.12 484.48 585.39 475.25 586.29 466.01 585.78 456.77 583.88 447.54 580.67 438.3 576.32 429.06 571 419.83 564.98 410.59 558.52 401.35 551.92 392.12 545.48 382.88 539.5 373.64 534.26 364.41 529.98 355.17 526.88 345.93 525.08 336.7 524.68 327.46 525.69 318.23 528.06 308.99 531.69 299.75 536.41 290.52 542 281.28 548.22 272.04 554.76 262.81 561.34C255.31 566.49 252.41 561.86 257.27 553.09Q263.73 540.83 269.77 528.55 275.31 516.27 280.29 504.04 284.67 491.9 288.44 479.87 291.61 467.98 294.21 456.28 296.32 444.78 298 433.51 299.35 422.49 300.51 411.74 301.6 401.27 302.74 391.08 304.09 381.19 305.77 371.59 307.9 362.29 310.6 353.28 313.95 344.55 318.01 336.09 322.82 327.88 328.39 319.91 334.68 312.15 341.66 304.58 349.24 297.18 357.3 289.92 365.71 282.78 374.34 275.73 383.01 268.74 391.57 261.78 403.76 251.33 407.68 247.84" stroke-dasharray="4 2" transform="rotate(48.48, 400, 400)" opacity="0.19"></path><path d="M404.52 258.8C410.52 253.59 420.57 258.07 421.44 266.44Q422.07 276.87 422.3 287.28 422.26 297.64 422.08 307.95 421.92 318.17 421.92 328.28 422.23 338.27 422.99 348.11 424.33 357.78 426.34 367.27 429.13 376.56 432.75 385.63 437.22 394.47 442.57 403.08 448.77 411.44 455.75 419.54 463.44 427.4 471.73 435 480.49 442.35 489.57 449.46 498.81 456.33 508.04 462.97 517.08 469.4 525.77 475.64 533.94 481.7 541.46 487.61 553.56 499.01 562.84 510.17 565.75 515.68 567.69 521.2C568.52 525.2 560.71 535.22 553.68 540Q536.35 552.02 519.02 562.84 501.69 570.76 484.36 574.55 467.03 573.62 449.7 568.11 432.37 558.87 415.03 547.37 397.7 535.4 380.37 524.83 363.04 517.32 345.71 514.04 328.38 515.51 311.05 521.5 293.72 531.07 276.39 542.72C269.35 547.63 266.35 543.61 270.62 535.37Q276.22 523.94 281.38 512.56 286.04 501.26 290.18 490.07 293.79 479.01 296.86 468.1 299.43 457.38 301.53 446.86 303.23 436.55 304.59 426.47 305.71 416.63 306.7 407.04 307.65 397.7 308.67 388.63 311.6 371.39 315.72 354.89 322.57 339.56 331.35 324.86 336.89 317.82 343.05 310.94 349.78 304.19 357 297.55 364.63 291 372.54 284.52 380.61 278.08 388.73 271.66 400.63 262.02 404.52 258.8" stroke-dasharray="3 2" transform="rotate(52.52, 400, 400)" opacity="0.14"></path><path d="M400.67 269.79C406.56 265.01 415.73 269.22 416.11 276.98Q416.29 296.3 416.08 315.49 416.4 334.43 418.12 352.96 422.01 370.96 428.58 388.31 438.05 404.92 450.32 420.71 464.95 435.63 481.21 449.68 498.14 462.87 514.7 475.25 529.85 486.9 542.67 497.93 552.52 508.49 559.04 518.73C560.57 522.38 554.17 531.82 547.63 536.28Q531.51 546.81 515.38 555.52 499.25 561.26 483.12 563.25 466.99 561.24 450.86 555.48 434.73 546.75 418.6 536.22 402.47 525.29 386.34 515.43 370.21 507.95 354.08 503.85 337.95 503.68 321.82 507.47 305.69 514.71 289.56 524.42C283.02 528.77 279.85 525.12 283.48 517.57Q292.46 496.83 299.63 476.6 304.96 457 308.65 438.15 311.08 420.13 312.84 402.99 314.59 386.75 317.04 371.39 320.86 356.86 326.55 343.1 334.46 329.99 344.63 317.42 356.89 305.26 370.78 293.36 385.64 281.59 400.67 269.79 400.67 269.79 400.67 269.79" stroke-dasharray="4 11" transform="rotate(56.56, 400, 400)" opacity="0.58"></path><path d="M396.36 280.77C401.93 276.42 410.24 280.37 410.34 287.51Q410.27 305.29 410.33 322.99 411.22 340.48 413.57 357.67 417.88 374.45 424.5 390.72 433.55 406.39 444.89 421.4 458.19 435.71 472.88 449.27 488.26 462.08 503.55 474.15 517.92 485.54 530.64 496.28 541.12 506.48 548.95 516.23C551.09 519.65 546.06 528.31 540.03 532.2Q525.16 540.83 510.3 547.37 495.43 551.07 480.56 551.51 465.69 548.65 450.82 542.81 435.95 534.65 421.08 525.08 406.21 515.18 391.35 506.07 376.48 498.76 361.61 494.09 346.74 492.58 331.87 494.39 317 499.33 302.13 506.84C296.1 510.43 292.76 506.94 295.74 500.19Q302.98 481.77 308.63 463.93 312.76 446.75 315.59 430.29 317.5 414.58 318.95 399.64 320.5 385.45 322.69 371.99 326.03 359.19 330.95 346.99 337.72 335.3 346.43 324.02 357.01 313.03 369.18 302.24 389.42 286.15 396.36 280.77" stroke-dasharray="10 3" transform="rotate(60.599999999999994, 400, 400)" opacity="0.29"></path><path d="M391.85 291.77C396.94 287.84 404.4 291.5 404.4 298.02Q404.44 314.25 404.95 330.43 406.44 346.46 409.34 362.26 413.97 377.75 420.53 392.86 429.06 407.5 439.46 421.63 451.44 435.2 464.6 448.16 478.43 460.5 492.35 472.2 505.75 483.29 518.05 493.79 528.75 503.73 537.47 513.17C540.06 516.47 536.29 524.18 530.8 527.3Q517.24 533.85 503.68 538.27 490.13 540.16 476.57 539.33 463.02 535.87 449.46 530.1 435.9 522.55 422.35 513.93 408.79 505.04 395.23 496.71 381.68 489.72 368.12 484.71 354.56 482.16 341 482.29 327.45 485.11 313.89 490.34C308.39 493.05 304.92 489.6 307.26 483.72Q312.86 467.74 317.15 452.34 320.24 437.55 322.36 423.4 323.83 409.89 325.04 397.01 326.4 384.75 328.33 373.05 331.23 361.87 335.42 351.13 341.14 340.78 348.48 330.72 357.43 320.88 367.85 311.16 385.65 296.63 391.85 291.77" stroke-dasharray="6 6" transform="rotate(64.64, 400, 400)" opacity="0.66"></path><path d="M387.41 302.79C391.9 299.27 398.53 302.64 398.57 308.52Q398.97 323.2 400.04 337.83 402.11 352.37 405.45 366.74 410.26 380.88 416.65 394.75 424.6 408.27 434.02 421.4 444.71 434.1 456.38 446.34 468.66 458.08 481.14 469.3 493.39 480.01 504.98 490.21 515.51 499.9 524.65 509.12C527.54 512.33 524.85 519 519.9 521.29Q507.7 525.72 495.51 528.21 483.31 528.57 471.11 526.76 458.91 522.93 446.71 517.35 434.51 510.47 422.31 502.79 410.11 494.89 397.91 487.37 385.71 480.81 373.51 475.69 361.31 472.41 349.11 471.2 336.91 472.17 324.71 475.23C319.76 477.03 316.21 473.55 317.96 468.56Q322.1 455.02 325.21 441.99 327.44 429.5 328.98 417.53 330.1 406.08 331.1 395.13 332.29 384.64 333.98 374.57 336.47 364.88 339.99 355.52 344.72 346.43 350.79 337.54 358.2 328.8 366.89 320.14 382.06 307.14 387.41 302.79" stroke-dasharray="8 0" transform="rotate(68.68, 400, 400)" opacity="0.31"></path><path d="M383.35 313.81C387.13 310.7 392.94 313.75 393.15 319.01Q394.05 332.11 395.69 345.18 398.25 358.19 401.91 371.09 406.76 383.83 412.85 396.37 420.15 408.68 428.58 420.7 438 432.41 448.2 443.78 458.95 454.77 469.95 465.38 480.92 475.58 491.55 485.36 501.55 494.73 510.65 503.69C513.67 506.82 511.85 512.4 507.47 513.84Q496.66 516.33 485.85 517.17 475.04 516.31 464.23 513.82 453.42 509.82 442.6 504.58 431.79 498.39 420.98 491.63 410.17 484.71 399.36 478.03 388.55 472 377.73 466.97 366.92 463.25 356.11 461.06 345.3 460.53 334.48 461.7C330.1 462.64 326.56 459.16 327.8 455.02Q330.69 443.81 332.83 433.03 334.37 422.67 335.46 412.72 336.31 403.15 337.14 393.95 339.95 376.64 344.63 360.13 348.49 352.23 353.38 344.46 359.35 336.78 366.4 329.14 378.89 317.66 383.35 313.81" stroke-dasharray="7 7" transform="rotate(72.72, 400, 400)" opacity="0.36"></path><path d="M379.89 324.86C382.94 322.15 387.97 324.87 388.38 329.49Q389.83 341 391.96 352.49 394.9 363.95 398.72 375.33 403.46 386.62 409.13 397.77 415.72 408.76 423.14 419.57 431.31 430.16 440.09 440.51 449.32 450.6 458.83 460.41 468.42 469.93 477.89 479.13 487.04 488.03 495.68 496.59C498.63 499.6 497.49 504.13 493.67 504.82Q484.27 505.64 474.86 505.17 465.46 503.45 456.05 500.55 446.65 496.61 437.25 491.8 427.84 486.34 418.44 480.49 409.03 474.52 399.63 468.69 390.22 463.28 380.81 458.52 371.41 454.65 362 451.84 352.6 450.21 343.19 449.85C339.37 450.07 335.96 446.62 336.77 443.28Q339.85 425.65 341.81 408.93 343.25 393.56 345.3 378.85 349.73 365 356.27 351.47 360.94 344.82 366.45 338.19 376.34 328.2 379.89 324.86" stroke-dasharray="9 5" transform="rotate(76.76, 400, 400)" opacity="0.40"></path><path d="M377.27 335.9C379.59 333.6 383.87 335.98 384.49 339.95Q388.92 359.75 395.86 379.47 405.5 398.94 417.7 418.02 432.04 436.55 447.8 454.41 464.1 471.49 479.95 487.69C482.68 490.51 482.02 494.05 478.78 494.12Q462.79 492.28 446.8 487 430.81 479 414.82 469.34 398.83 459.32 382.84 450.28 366.84 443.42 350.85 439.67C347.61 439.34 344.45 436.04 344.94 433.42Q346.91 419.37 348.06 406.13 349.15 393.57 350.95 381.55 354.19 369.94 359.46 358.56 372.19 341.59 377.27 335.9" stroke-dasharray="7 4" transform="rotate(80.80000000000001, 400, 400)" opacity="0.47"></path><path d="M375.66 346.96C377.32 345.05 380.87 347.07 381.65 350.4Q386.58 366.96 393.34 383.5 401.93 399.9 412.26 416.09 424.04 431.96 436.89 447.45 450.31 462.46 463.76 476.93C466.13 479.48 465.76 482.14 463.08 481.78Q449.9 478.57 436.71 473.2 423.53 466.2 410.34 458.19 397.15 449.94 383.96 442.2 370.78 435.71 357.59 431.06C354.91 430.38 352.13 427.35 352.38 425.35Q353.47 414.55 354.24 404.2 355.14 394.24 356.62 384.57 359.1 375.1 362.96 365.74 372.05 351.67 375.66 346.96" stroke-dasharray="10 10" transform="rotate(84.84, 400, 400)" opacity="0.87"></path><path d="M375.19 358.04C376.29 356.53 379.1 358.17 379.97 360.84Q384.96 374.15 391.13 387.45 398.44 400.69 406.81 413.83 416.11 426.82 426.12 439.61 436.63 452.16 447.36 464.43C449.3 466.61 449.07 468.52 446.97 467.93Q436.54 464.17 426.12 459.23 415.69 453.41 405.26 447.05 394.84 440.53 384.41 434.24 373.99 428.57 363.56 423.83C361.45 423.02 359.13 420.39 359.26 418.91Q360.48 403.12 362.29 387.86 371.23 365.51 375.19 358.04" stroke-dasharray="1 3" transform="rotate(88.88, 400, 400)" opacity="0.71"></path><path d="M375.92 369.12C376.57 368 378.68 369.26 379.51 371.26Q389.21 391.3 401.36 411.28 415.53 431.03 431.04 450.39C432.48 452.11 432.32 453.4 430.75 452.75Q415.32 445.11 399.88 435.9 384.44 426.34 369 417.7C367.43 416.93 365.67 414.83 365.74 413.79Q366.49 402.46 367.96 391.35 373.41 374.71 375.92 369.12" stroke-dasharray="6 10" transform="rotate(92.92, 400, 400)" opacity="0.76"></path><path d="M377.86 380.23C378.17 379.47 379.58 380.33 380.26 381.68Q387.57 395.08 395.91 408.49 405.14 421.85 415.06 435.12C415.98 436.3 415.86 437.09 414.83 436.56Q404.67 430.92 394.51 424.76 384.34 418.44 374.18 412.35C373.15 411.76 371.99 410.3 372.02 409.63Q375.91 387.6 377.86 380.23" stroke-dasharray="4 5" transform="rotate(96.96, 400, 400)" opacity="0.58"></path></g></svg>